<?xml version="1.0" standalone="no"?>
<!DOCTYPE svg PUBLIC "-//W3C//DTD SVG 20010904//EN"
 "http://www.w3.org/TR/2001/REC-SVG-20010904/DTD/svg10.dtd">
<svg version="1.0" xmlns="http://www.w3.org/2000/svg"
 width="700.000000pt" height="700.000000pt" viewBox="0 0 700.000000 700.000000"
 preserveAspectRatio="xMidYMid meet">
<metadata>
Created by potrace 1.11, written by Peter Selinger 2001-2013
</metadata>
<g transform="translate(0.000000,700.000000) scale(0.100000,-0.100000)"
fill="#000000" stroke="none">
<path d="M1689 6715 c-2 -2 -26 -6 -54 -9 -331 -36 -666 -190 -931 -428 -125
-112 -261 -275 -354 -423 -52 -83 -170 -317 -170 -337 0 -8 -4 -18 -9 -23 -24
-27 -121 -371 -136 -485 -3 -25 -8 -56 -10 -70 -26 -147 -27 -455 -1 -585 6
-33 19 -130 17 -130 -2 0 2 -12 7 -26 6 -14 13 -41 16 -60 7 -44 71 -270 94
-329 9 -25 17 -47 18 -50 0 -3 7 -21 16 -41 9 -20 19 -47 23 -60 15 -49 147
-313 207 -412 129 -215 294 -429 464 -602 97 -98 139 -138 319 -300 48 -44 95
-87 104 -95 9 -9 61 -56 116 -105 55 -50 107 -97 115 -105 8 -8 83 -76 165
-149 83 -74 155 -139 160 -145 6 -6 53 -49 105 -96 52 -47 104 -94 116 -105
11 -11 43 -40 70 -64 27 -25 72 -65 99 -90 28 -25 90 -82 139 -126 49 -44 98
-89 110 -100 12 -11 64 -58 116 -105 51 -47 98 -90 104 -95 6 -6 78 -71 161
-145 82 -74 159 -144 171 -155 11 -11 63 -58 115 -105 52 -47 119 -108 149
-136 30 -28 68 -62 84 -75 16 -13 39 -35 51 -48 l23 -23 98 88 c55 49 115 103
134 121 19 17 44 40 56 50 74 64 160 140 173 154 9 8 99 89 201 179 102 90
190 169 196 175 6 5 41 37 79 70 37 33 83 74 100 90 18 17 48 44 67 60 34 30
204 181 224 200 20 18 157 139 176 156 24 22 158 141 172 154 6 6 49 44 95 85
47 41 92 82 101 90 19 17 59 53 180 160 47 41 94 84 106 95 11 11 41 37 65 59
137 120 201 178 264 235 422 388 716 835 890 1356 46 137 86 287 104 395 6 36
13 79 16 95 27 157 26 471 -1 608 -3 16 -7 38 -9 50 -1 12 -6 38 -9 57 -4 19
-8 42 -10 50 -22 116 -86 316 -143 450 -236 547 -668 949 -1178 1094 -49 14
-108 28 -130 32 -22 3 -43 8 -46 9 -29 18 -386 26 -509 12 -299 -36 -603 -159
-855 -348 -229 -171 -422 -403 -554 -668 l-52 -103 -54 108 c-134 274 -329
510 -575 697 -170 130 -463 259 -665 293 -16 2 -55 9 -85 15 -51 10 -403 22
-411 14z"/>
</g>
</svg>
