<svg width="31" height="30" viewBox="0 0 31 30" fill="none" xmlns="http://www.w3.org/2000/svg">
<path d="M8.55 12.6299C8.625 11.4749 9.015 10.5449 10.02 10.0049C11.1 9.46486 12.33 10.0049 12.72 11.1599C13.11 12.1649 13.035 13.1699 12.495 14.1599C12.42 14.2349 12.42 14.4749 12.495 14.5499C12.81 15.1649 13.185 15.7799 13.5 16.4699C13.575 16.6949 13.725 16.6949 13.965 16.6949C14.355 16.6199 14.73 16.5449 15.12 16.5449C15.885 16.4699 16.59 16.8599 17.205 17.3999C17.67 17.8649 18.21 18.3299 18.75 18.7049C19.605 19.3199 20.76 19.2449 21.525 18.5549C22.14 18.0149 22.605 17.3999 23.145 16.7849C23.61 16.3199 24 15.7799 24.615 15.5549C25.695 15.0899 26.925 15.7799 27.165 17.0249C27.48 18.7949 27.09 20.3399 25.935 21.6449C25.47 22.1849 24.855 22.4999 24.165 22.6499C23.55 22.7999 22.935 22.4999 22.545 21.8849C22.23 21.4199 21.855 20.9549 21.315 20.8049C20.385 20.4899 19.62 20.8049 18.93 21.2699C18.54 21.5849 18.165 21.9599 17.775 22.3499C17.085 23.1149 16.305 23.5799 15.315 23.5799C13.305 23.5799 11.535 21.9599 11.775 19.6499C11.85 19.0349 12.09 18.4949 12.39 17.9549C12.465 17.8799 12.465 17.7299 12.465 17.5649C12.075 16.7999 11.7 16.0949 11.31 15.4049C11.235 15.3299 11.16 15.2549 10.995 15.2549C9.48 15.2549 8.475 13.9499 8.55 12.6299Z" fill="white"/>
<path d="M17.88 7.24477C17.805 8.54977 17.415 9.40478 16.41 9.94478C15.33 10.4848 14.025 10.0948 13.245 9.01478C13.095 8.78977 12.93 8.54977 12.78 8.24977C12.09 7.16977 10.935 7.09477 10.005 7.85977C9.53999 8.24977 9.07499 8.62477 8.62499 9.01478C8.17499 9.40478 7.54499 9.47978 7.00499 9.32978C6.46499 9.17978 5.99999 8.56477 5.99999 7.70977C5.99999 6.85477 6.22499 6.16477 6.68999 5.47477C7.30499 4.61977 7.99499 3.92977 8.92499 3.46477C9.07499 3.38977 9.14999 3.38977 9.31499 3.31477C10.245 2.99977 10.785 3.46477 10.785 4.46977C10.785 4.69477 10.785 4.93477 10.86 5.15977C11.175 6.01477 12.015 6.31477 12.78 5.77477C13.095 5.62477 13.32 5.30977 13.545 5.08477C13.695 4.93477 13.935 4.69477 14.085 4.46977C14.94 3.53977 15.555 3.53977 16.47 4.15477C17.415 4.93477 17.715 6.08977 17.88 7.24477Z" fill="white"/>
<path d="M4.245 21.8099C4.32 21.5849 4.47 21.3449 4.56 21.1199C4.56 21.0449 4.56 20.8049 4.485 20.7299C4.095 20.1899 3.63 19.7249 3.255 19.1849C3.18 19.1099 2.94 19.0349 2.79 18.8699C2.325 18.5549 1.935 18.9449 1.785 19.3349C1.71 19.5599 1.71 19.7999 1.635 20.0249C1.635 20.0999 1.56 20.2499 1.485 20.2499C1.41 20.2499 1.26 20.1749 1.26 20.0999C1.11 19.7099 0.869996 19.2449 0.719999 18.8699C0.329999 17.5649 0.104999 16.1699 0.0299988 14.7149C0.0299988 14.1749 0.104999 13.7099 0.104999 13.1699C0.254999 12.8549 0.494999 12.8549 0.644999 13.0949C1.035 13.5599 1.185 14.1749 1.26 14.7149C1.335 15.3299 1.41 16.0199 1.8 16.5599C2.025 16.8749 2.34 17.1749 2.73 17.3249C3.12 17.5499 3.495 17.3999 3.81 17.0999C3.96 16.9499 4.125 16.7849 4.275 16.5599C4.965 15.4049 6.195 15.3299 7.275 15.9449C8.97 16.9499 9.66 19.2599 9.285 20.9549C9.06 22.0349 8.28 22.7249 7.125 22.5749C6.735 22.4999 6.36 22.3499 6.045 22.1849C5.895 22.1099 5.82 22.1099 5.73 22.2599C5.655 22.4849 5.505 22.6499 5.415 22.8749C5.34 23.0249 5.415 23.2649 5.415 23.4149C5.49 23.8049 5.73 24.1799 5.805 24.6449C5.805 24.7949 5.805 25.1099 5.655 25.1849C5.58 25.2599 5.265 25.1849 5.115 25.1099C4.11 24.5699 3.495 23.6399 2.955 22.5599C2.805 22.2449 2.73 21.9449 2.64 21.5549C2.64 21.4049 2.715 21.0899 2.79 21.0149C2.94 20.9399 3.18 20.9399 3.33 21.0149C3.615 21.3449 3.855 21.5699 4.245 21.8099Z" fill="white"/>
<path d="M25.275 9.85477C25.35 9.46477 25.35 9.08977 25.5 8.77477C25.725 8.08476 26.265 8.00976 26.805 8.38476C27.345 8.77477 27.66 9.38977 27.885 10.0048C28.11 10.6948 28.275 11.4748 28.11 12.2398C28.035 12.4648 27.96 12.7048 27.885 12.9298C27.57 13.4698 26.955 13.4698 26.58 13.0798C26.355 12.8548 26.19 12.5398 25.965 12.3148C25.89 12.1648 25.815 12.0898 25.575 12.1648C24.645 12.5548 23.655 12.8548 22.725 13.2448C22.41 13.3198 22.335 13.4698 22.335 13.7848C22.335 15.4798 20.955 16.6348 19.41 16.2448C18.72 16.0948 18.18 15.4798 17.865 14.7748C17.475 13.7698 17.715 12.3898 18.405 11.6998C19.26 10.8448 20.49 10.7698 21.405 11.6248C21.72 11.9398 21.945 11.9398 22.26 11.7748C23.19 11.3848 24.105 11.0848 25.035 10.6948C25.26 10.6198 25.35 10.5448 25.35 10.3048C25.35 10.0948 25.35 10.0198 25.275 9.85477Z" fill="white"/>
<path d="M19.185 4.93482C19.26 4.61982 19.26 4.24482 19.335 3.92982C19.56 3.31482 20.025 3.07482 20.565 3.23982C21.105 3.40482 21.57 3.62982 22.035 4.00482C22.425 4.31982 22.89 4.61982 23.34 4.69482C23.805 4.76982 24.105 4.46982 23.88 4.00482C23.73 3.53982 23.415 3.14982 23.19 2.77482C23.115 2.62482 22.965 2.38482 22.965 2.23482C22.815 1.84482 22.965 1.69482 23.355 1.84482C23.745 1.99482 24.12 2.15982 24.51 2.45982C25.815 3.31482 26.82 4.46982 27.435 5.92482C27.51 6.14982 27.585 6.46482 27.66 6.68982C27.735 7.07981 27.51 7.30482 27.12 7.22982C26.805 7.07982 26.58 6.91481 26.265 6.68982C26.04 6.53981 25.8 6.29982 25.5 6.07482C24.885 5.60982 24.495 5.92482 24.27 6.53981C24.12 6.92982 24.12 7.46982 24.12 7.84482C24.12 8.84986 23.115 9.53986 22.2 9.31486C20.895 8.99986 20.04 8.08482 19.575 6.76482C19.335 6.23981 19.185 5.62482 19.185 4.93482Z" fill="white"/>
<path d="M11.79 29.67C11.325 29.745 10.86 29.595 10.41 29.355C9.405 28.89 8.4 28.425 7.635 27.66C7.485 27.51 7.17 27.27 7.32 26.97C7.47 26.655 7.785 26.82 8.01 26.82C8.865 26.97 9.555 27.435 10.245 27.9C10.86 28.29 11.475 28.59 12.165 28.665C12.63 28.665 13.02 28.59 13.32 28.2C13.86 27.585 14.625 27.51 15.405 27.585C15.87 27.585 16.335 27.735 16.71 27.9C17.025 27.975 17.25 28.29 17.325 28.665C17.325 29.055 17.1 29.355 16.785 29.52C15.855 30.06 14.865 30.135 13.86 29.67C13.32 29.445 12.78 29.28 12.24 29.205C11.865 29.28 11.79 29.355 11.79 29.67Z" fill="white"/>
<path d="M19.035 26.6549C18.345 26.6549 17.88 26.5049 17.565 25.9649C17.25 25.3499 17.34 24.8099 17.64 24.1949C18.255 23.0399 19.725 22.4249 20.955 22.8149C21.72 23.0399 22.035 23.9699 21.645 24.7349C21.105 26.0399 20.115 26.5049 19.035 26.6549Z" fill="white"/>
<path d="M4.935 11.5498C4.935 12.4798 4.71 13.3948 4.17 14.0998C3.945 14.4148 3.63 14.7148 3.24 14.7148C2.625 14.7898 2.235 14.2498 2.085 13.7098C1.695 12.4048 1.935 11.1598 2.7 10.0048C2.85 9.77981 3.015 9.61481 3.24 9.46481C3.855 9.07481 4.545 9.46481 4.785 10.2298C4.86 10.4548 4.935 10.6198 4.935 10.8448C4.935 11.0998 4.935 11.3248 4.935 11.5498Z" fill="white"/>
<path d="M10.485 23.9551C11.565 24.0301 12.495 24.4951 12.945 25.6501C13.335 26.5801 12.87 27.3451 11.94 27.4951C10.71 27.6451 9.55499 26.7301 9.23999 25.8001C8.84999 24.7951 9.31499 24.0301 10.32 23.9551C10.32 23.9551 10.395 23.9551 10.485 23.9551Z" fill="white"/>
<path d="M28.125 18.9601C28.275 17.8801 28.35 16.7251 28.59 15.6451C28.74 14.9551 28.98 14.1751 29.205 13.4851C29.28 13.2601 29.52 12.9451 29.67 13.0201C29.895 13.0201 29.985 13.4101 29.985 13.6351C30.06 15.0151 29.985 16.3351 29.67 17.6401C29.445 18.4951 29.28 19.2601 28.905 20.0251C28.905 20.0251 28.905 20.1001 28.83 20.1001C28.755 20.1751 28.605 20.2501 28.515 20.4151C28.44 20.2651 28.365 20.1901 28.29 20.0251C28.2 19.6501 28.2 19.3351 28.125 18.9601C28.2 18.9601 28.125 18.9601 28.125 18.9601Z" fill="white"/>
<path d="M14.175 1.47022C14.1 2.31022 13.95 3.00022 13.41 3.54022C13.26 3.69022 13.02 3.85522 12.795 3.93022C12.105 4.15522 11.49 3.61522 11.715 2.85022C11.94 1.77022 12.645 1.08022 13.485 0.540223C13.8 0.390223 14.025 0.465223 14.1 0.855222C14.1 1.15522 14.175 1.30522 14.175 1.47022Z" fill="white"/>
<path d="M22.8 27.8102C22.11 28.1252 21.42 28.5002 20.715 28.8152C20.025 29.1302 19.335 29.4302 18.555 29.6702H18.48C18.33 29.6702 18.255 29.6702 18.09 29.6702C18.165 29.5202 18.165 29.3552 18.24 29.2802C18.78 28.5902 19.395 28.1252 20.085 27.6602C20.7 27.2702 21.315 26.8952 22.005 26.8052C22.155 26.8052 22.23 26.8052 22.395 26.8052C22.62 26.8052 22.71 26.9552 22.62 27.1952C22.62 27.3452 22.62 27.5102 22.62 27.6602C22.725 27.7352 22.8 27.7352 22.8 27.8102Z" fill="white"/>
<path d="M24.045 25.8899C24.27 25.4249 24.435 25.0349 24.66 24.5849C25.125 23.7299 25.74 22.9649 26.505 22.4249C26.655 22.2749 26.895 22.3499 27.12 22.2749C27.12 22.4999 27.195 22.8149 27.12 22.9649C26.58 24.2699 25.74 25.2749 24.66 26.0399C24.585 26.1149 24.51 26.1149 24.435 26.1899C24.12 26.1899 24.045 26.1149 24.045 25.8899Z" fill="white"/>
<path d="M18.57 0C18.795 0.075 19.11 0.15 19.335 0.225C20.34 0.615 21.255 1.08 22.035 1.92C22.185 2.07 22.26 2.235 22.35 2.385C22.425 2.535 22.5 2.775 22.425 2.85C22.35 2.925 22.11 3 21.96 2.925C21.57 2.775 21.105 2.61 20.805 2.31C20.04 1.695 19.425 1.005 18.645 0.39C18.57 0.315 18.495 0.165 18.42 0.075C18.495 0.075 18.495 0 18.57 0Z" fill="white"/>
</svg>
